<svg xmlns="http://www.w3.org/2000/svg" xmlns:xlink="http://www.w3.org/1999/xlink" width="102px" height="101px"><defs><linearGradient id="PSgrad_0" x1="0%" x2="0%" y1="100%" y2="0%"><stop offset="0%" stop-color="rgb(228,102,88)" stop-opacity="1"></stop><stop offset="33%" stop-color="rgb(255,128,57)" stop-opacity="1"></stop></linearGradient><linearGradient id="PSgrad_1" x1="0%" x2="39.073%" y1="0%" y2="92.05%"><stop offset="0%" stop-color="rgb(228,102,88)" stop-opacity="1"></stop><stop offset="33%" stop-color="rgb(255,128,57)" stop-opacity="1"></stop></linearGradient><linearGradient id="PSgrad_2" x1="0%" x2="39.073%" y1="0%" y2="92.05%"><stop offset="0%" stop-color="rgb(228,102,88)" stop-opacity="1"></stop><stop offset="33%" stop-color="rgb(236,109,78)" stop-opacity="1"></stop></linearGradient></defs><path fill-rule="evenodd" fill="rgb(223, 78, 125)" d="M80.167,0.429 C84.44,0.425 86.782,2.434 87.977,6.295 C91.739,18.448 95.465,30.611 99.208,42.770 C99.655,44.223 100.108,45.675 100.575,47.122 C101.313,49.403 101.302,51.673 100.593,53.964 C96.386,67.570 92.211,81.187 87.983,94.787 C86.470,99.653 82.300,101.882 77.378,100.389 C63.476,96.170 49.598,91.874 35.710,87.610 C33.977,87.78 32.557,86.75 31.285,84.805 C21.975,75.513 12.635,66.250 3.341,56.940 C0.720,52.871 0.747,48.313 3.298,44.256 C12.642,34.884 22.44,25.569 31.412,16.220 C32.750,14.884 34.304,13.981 36.115,13.427 C49.776,9.245 63.433,5.47 77.82,0.827 C78.105,0.511 79.119,0.411 80.167,0.429 ZM78.388,29.695 C78.183,29.649 77.978,29.605 77.774,29.559 C74.130,36.307 70.492,43.58 66.834,49.799 C66.359,50.675 66.831,51.323 67.208,52.25 C69.218,55.764 71.215,59.511 73.236,63.245 C74.750,66.42 76.293,68.822 77.901,71.753 C78.231,71.340 78.443,71.183 78.506,70.980 C80.521,64.484 82.518,57.983 84.528,51.486 C84.698,50.936 84.765,50.420 84.588,49.849 C82.512,43.133 80.452,36.413 78.388,29.695 ZM63.260,79.329 C63.170,78.709 63.198,78.447 63.95,78.255 C59.755,72.48 56.384,65.856 53.67,59.637 C52.456,58.492 51.520,58.420 50.434,58.425 C46.737,58.444 43.39,58.431 39.342,58.431 C35.676,58.431 32.10,58.431 28.32,58.431 C28.392,59.23 28.502,59.317 28.704,59.519 C32.903,63.715 37.104,67.910 41.335,72.75 C41.773,72.506 42.363,72.871 42.949,73.55 C49.606,75.138 56.276,77.179 63.260,79.329 ZM27.828,42.704 C35.988,42.704 43.536,42.690 51.84,42.718 C52.261,42.722 52.775,42.36 53.256,41.144 C56.412,35.292 59.593,29.453 62.747,23.600 C62.989,23.150 63.498,22.702 62.947,21.926 C56.260,23.982 49.526,26.48 42.796,28.131 C42.423,28.247 42.17,28.421 41.748,28.690 C37.231,33.214 32.734,37.757 27.828,42.704 Z"></path><path fill="url(#PSgrad_0)" d="M80.167,0.429 C84.44,0.425 86.782,2.434 87.977,6.295 C91.739,18.448 95.465,30.611 99.208,42.770 C99.655,44.223 100.108,45.675 100.575,47.122 C101.313,49.403 101.302,51.673 100.593,53.964 C96.386,67.570 92.211,81.187 87.983,94.787 C86.470,99.653 82.300,101.882 77.378,100.389 C63.476,96.170 49.598,91.874 35.710,87.610 C33.977,87.78 32.557,86.75 31.285,84.805 C21.975,75.513 12.635,66.250 3.341,56.940 C0.720,52.871 0.747,48.313 3.298,44.256 C12.642,34.884 22.44,25.569 31.412,16.220 C32.750,14.884 34.304,13.981 36.115,13.427 C49.776,9.245 63.433,5.47 77.82,0.827 C78.105,0.511 79.119,0.411 80.167,0.429 ZM78.388,29.695 C78.183,29.649 77.978,29.605 77.774,29.559 C74.130,36.307 70.492,43.58 66.834,49.799 C66.359,50.675 66.831,51.323 67.208,52.25 C69.218,55.764 71.215,59.511 73.236,63.245 C74.750,66.42 76.293,68.822 77.901,71.753 C78.231,71.340 78.443,71.183 78.506,70.980 C80.521,64.484 82.518,57.983 84.528,51.486 C84.698,50.936 84.765,50.420 84.588,49.849 C82.512,43.133 80.452,36.413 78.388,29.695 ZM63.260,79.329 C63.170,78.709 63.198,78.447 63.95,78.255 C59.755,72.48 56.384,65.856 53.67,59.637 C52.456,58.492 51.520,58.420 50.434,58.425 C46.737,58.444 43.39,58.431 39.342,58.431 C35.676,58.431 32.10,58.431 28.32,58.431 C28.392,59.23 28.502,59.317 28.704,59.519 C32.903,63.715 37.104,67.910 41.335,72.75 C41.773,72.506 42.363,72.871 42.949,73.55 C49.606,75.138 56.276,77.179 63.260,79.329 ZM27.828,42.704 C35.988,42.704 43.536,42.690 51.84,42.718 C52.261,42.722 52.775,42.36 53.256,41.144 C56.412,35.292 59.593,29.453 62.747,23.600 C62.989,23.150 63.498,22.702 62.947,21.926 C56.260,23.982 49.526,26.48 42.796,28.131 C42.423,28.247 42.17,28.421 41.748,28.690 C37.231,33.214 32.734,37.757 27.828,42.704 Z"></path><path fill-rule="evenodd" fill="rgb(223, 78, 125)" d="M87.999,8.999 L98.999,42.999 L84.999,49.999 L77.999,28.999 L87.999,8.999 Z"></path><path fill="url(#PSgrad_1)" d="M87.999,8.999 L98.999,42.999 L84.999,49.999 L77.999,28.999 L87.999,8.999 Z"></path><path fill-rule="evenodd" fill="rgb(223, 78, 125)" d="M4.566,57.707 L29.811,83.0 L42.424,73.731 L26.925,57.926 L4.566,57.707 Z"></path><path fill="url(#PSgrad_2)" d="M4.566,57.707 L29.811,83.0 L42.424,73.731 L26.925,57.926 L4.566,57.707 Z"></path></svg>