<svg xmlns="http://www.w3.org/2000/svg" xmlns:xlink="http://www.w3.org/1999/xlink" width="107px" height="100px"><defs><linearGradient id="PSgrad_0" x1="0%" x2="98.769%" y1="0%" y2="15.643%"><stop offset="0%" stop-color="rgb(204,67,245)" stop-opacity="0.6054103"></stop><stop offset="100%" stop-color="rgb(126,74,210)" stop-opacity="0.83"></stop></linearGradient><linearGradient id="PSgrad_1" x1="76.604%" x2="0%" y1="0%" y2="64.279%"><stop offset="0%" stop-color="rgb(190,73,229)" stop-opacity="0.72941"></stop><stop offset="100%" stop-color="rgb(128,70,234)" stop-opacity="1"></stop></linearGradient><linearGradient id="PSgrad_2" x1="54.464%" x2="0%" y1="83.867%" y2="0%"><stop offset="0%" stop-color="rgb(195,70,236)" stop-opacity="0.6054103"></stop><stop offset="99%" stop-color="rgb(150,71,212)" stop-opacity="0.83"></stop><stop offset="100%" stop-color="rgb(150,71,212)" stop-opacity="0.83"></stop></linearGradient></defs><path fill-rule="evenodd" fill="rgb(204, 67, 245)" d="M0.819,65.98 C1.537,52.954 7.715,42.890 20.74,36.829 C20.579,36.581 20.807,36.334 20.759,35.720 C20.161,28.61 22.228,21.111 26.619,14.880 C31.566,7.860 38.296,3.308 46.724,1.658 C59.30,0.749 69.581,2.762 78.55,11.997 C83.573,18.10 86.197,25.282 86.372,33.430 C86.389,34.192 86.298,34.962 86.189,35.719 C86.108,36.279 86.297,36.537 86.810,36.771 C92.675,39.442 97.379,43.482 100.872,48.896 C104.705,54.837 106.455,61.377 106.94,68.420 C105.376,82.413 95.829,94.439 82.353,98.263 C72.353,101.101 63.38,99.412 54.493,93.530 C53.738,93.11 53.283,92.979 52.514,93.521 C46.446,97.798 39.684,99.845 32.254,99.555 C18.394,99.12 6.91,89.357 2.218,76.42 C1.317,72.943 0.855,69.786 0.819,65.98 ZM82.433,49.282 C82.281,49.472 82.181,49.568 82.116,49.682 C78.529,56.7 73.463,60.726 66.859,63.795 C66.649,63.893 66.458,64.288 66.460,64.542 C66.469,65.361 66.640,66.180 66.629,66.997 C66.561,72.70 65.320,76.856 63.18,81.371 C62.737,81.921 62.460,82.473 62.189,83.7 C67.742,86.969 76.94,87.905 82.899,83.905 C90.23,79.718 93.484,73.345 92.895,65.112 C92.387,58.3 88.614,52.813 82.433,49.282 ZM44.834,83.102 C44.662,82.747 44.540,82.479 44.404,82.219 C41.520,76.726 39.877,70.957 40.544,64.688 C40.611,64.62 40.281,63.885 39.838,63.682 C34.215,61.106 29.722,57.203 26.269,52.89 C25.676,51.212 25.137,50.297 24.509,49.297 C18.316,52.866 14.698,58.73 14.41,65.167 C13.309,73.69 17.516,80.622 24.848,84.304 C31.649,87.719 38.330,87.76 44.834,83.102 ZM73.284,33.549 C72.988,26.416 69.951,20.629 63.685,16.917 C56.520,12.673 49.196,12.926 42.291,17.567 C36.644,21.361 33.920,26.906 33.700,33.755 C33.987,33.783 34.145,33.808 34.303,33.812 C41.162,33.997 47.365,36.118 52.905,40.154 C53.424,40.532 53.742,40.412 54.189,40.83 C57.605,37.570 61.357,35.721 65.500,34.805 C68.1,34.252 70.563,33.978 73.284,33.549 Z"></path><path fill-rule="evenodd" fill="rgb(204, 67, 245)" d="M25.199,49.163 C25.199,49.163 36.112,43.757 45.226,50.904 C45.226,50.904 48.490,42.268 54.803,40.456 C54.803,40.456 38.520,30.190 20.846,36.102 C20.846,36.102 21.310,44.626 25.199,49.163 Z"></path><path fill="url(#PSgrad_0)" d="M25.199,49.163 C25.199,49.163 36.112,43.757 45.226,50.904 C45.226,50.904 48.490,42.268 54.803,40.456 C54.803,40.456 38.520,30.190 20.846,36.102 C20.846,36.102 21.310,44.626 25.199,49.163 Z"></path><path fill-rule="evenodd" fill="rgb(204, 67, 245)" d="M73.89,33.490 C73.89,33.490 82.792,33.747 86.149,36.973 C86.149,36.973 85.518,54.157 66.123,63.965 C66.123,63.965 65.978,55.128 62.640,50.904 C62.640,50.904 72.959,43.990 73.89,33.490 Z"></path><path fill="url(#PSgrad_1)" d="M73.89,33.490 C73.89,33.490 82.792,33.747 86.149,36.973 C86.149,36.973 85.518,54.157 66.123,63.965 C66.123,63.965 65.978,55.128 62.640,50.904 C62.640,50.904 72.959,43.990 73.89,33.490 Z"></path><path fill-rule="evenodd" fill="rgb(204, 67, 245)" d="M61.769,83.121 C61.769,83.121 58.286,89.105 53.933,92.699 C53.933,92.699 39.351,81.958 40.872,63.965 L53.933,65.706 C53.933,65.706 52.306,75.84 61.769,83.121 Z"></path><path fill="url(#PSgrad_2)" d="M61.769,83.121 C61.769,83.121 58.286,89.105 53.933,92.699 C53.933,92.699 39.351,81.958 40.872,63.965 L53.933,65.706 C53.933,65.706 52.306,75.84 61.769,83.121 Z"></path></svg>