<svg xmlns="http://www.w3.org/2000/svg" xmlns:xlink="http://www.w3.org/1999/xlink" width="110px" height="97px"><defs><linearGradient id="PSgrad_0" x1="39.073%" x2="0%" y1="92.05%" y2="0%"><stop offset="0%" stop-color="rgb(39,179,202)" stop-opacity="1"></stop><stop offset="76%" stop-color="rgb(0,231,237)" stop-opacity="1"></stop></linearGradient><linearGradient id="PSgrad_1" x1="0%" x2="89.879%" y1="43.837%" y2="0%"><stop offset="8%" stop-color="rgb(36,173,196)" stop-opacity="1"></stop><stop offset="60%" stop-color="rgb(18,207,221)" stop-opacity="1"></stop></linearGradient></defs><path fill-rule="evenodd" fill="rgb(223, 78, 125)" d="M109.133,33.726 C105.688,42.813 102.140,51.861 98.623,60.921 C96.360,66.749 93.640,68.641 87.447,68.653 C79.953,68.666 72.460,68.656 64.967,68.655 C57.553,68.654 50.140,68.644 42.726,68.658 C36.706,68.669 33.664,66.532 31.752,60.774 C27.394,47.650 23.43,34.523 18.759,21.374 C18.244,19.791 17.608,18.992 15.799,19.163 C13.824,19.350 11.817,19.228 9.825,19.201 C4.504,19.129 0.199,14.743 0.142,9.359 C0.90,4.445 4.506,0.119 9.772,0.43 C14.554,0.25 19.337,0.2 24.120,0.25 C29.249,0.55 32.473,2.326 34.203,7.215 C35.505,10.893 36.752,14.595 37.864,18.334 C38.377,20.61 39.197,20.652 41.43,20.645 C60.573,20.572 80.104,20.586 99.634,20.610 C105.446,20.618 109.231,23.908 109.784,29.541 C109.918,30.908 109.625,32.428 109.133,33.726 ZM45.309,39.892 C46.289,42.939 47.91,45.669 48.89,48.325 C48.284,48.843 49.236,49.388 49.842,49.392 C60.267,49.459 70.692,49.455 81.116,49.410 C81.703,49.408 82.631,49.65 82.817,48.630 C84.27,45.801 85.76,42.902 86.230,39.892 C72.527,39.892 59.94,39.892 45.309,39.892 ZM49.196,73.379 C55.473,73.440 60.832,78.800 60.777,84.960 C60.717,91.680 55.398,96.947 48.747,96.873 C42.378,96.803 37.159,91.436 37.188,84.988 C37.218,78.416 42.496,73.313 49.196,73.379 ZM83.255,73.370 C89.625,73.391 94.942,78.572 94.971,84.785 C95.3,91.581 89.814,96.888 83.158,96.868 C76.657,96.849 71.348,91.460 71.394,84.928 C71.439,78.552 76.778,73.350 83.255,73.370 Z"></path><path fill="url(#PSgrad_0)" d="M109.133,33.726 C105.688,42.813 102.140,51.861 98.623,60.921 C96.360,66.749 93.640,68.641 87.447,68.653 C79.953,68.666 72.460,68.656 64.967,68.655 C57.553,68.654 50.140,68.644 42.726,68.658 C36.706,68.669 33.664,66.532 31.752,60.774 C27.394,47.650 23.43,34.523 18.759,21.374 C18.244,19.791 17.608,18.992 15.799,19.163 C13.824,19.350 11.817,19.228 9.825,19.201 C4.504,19.129 0.199,14.743 0.142,9.359 C0.90,4.445 4.506,0.119 9.772,0.43 C14.554,0.25 19.337,0.2 24.120,0.25 C29.249,0.55 32.473,2.326 34.203,7.215 C35.505,10.893 36.752,14.595 37.864,18.334 C38.377,20.61 39.197,20.652 41.43,20.645 C60.573,20.572 80.104,20.586 99.634,20.610 C105.446,20.618 109.231,23.908 109.784,29.541 C109.918,30.908 109.625,32.428 109.133,33.726 ZM45.309,39.892 C46.289,42.939 47.91,45.669 48.89,48.325 C48.284,48.843 49.236,49.388 49.842,49.392 C60.267,49.459 70.692,49.455 81.116,49.410 C81.703,49.408 82.631,49.65 82.817,48.630 C84.27,45.801 85.76,42.902 86.230,39.892 C72.527,39.892 59.94,39.892 45.309,39.892 ZM49.196,73.379 C55.473,73.440 60.832,78.800 60.777,84.960 C60.717,91.680 55.398,96.947 48.747,96.873 C42.378,96.803 37.159,91.436 37.188,84.988 C37.218,78.416 42.496,73.313 49.196,73.379 ZM83.255,73.370 C89.625,73.391 94.942,78.572 94.971,84.785 C95.3,91.581 89.814,96.888 83.158,96.868 C76.657,96.849 71.348,91.460 71.394,84.928 C71.439,78.552 76.778,73.350 83.255,73.370 Z"></path><path fill-rule="evenodd" fill="rgb(223, 78, 125)" d="M37.999,18.999 L44.999,39.999 L85.999,39.999 L87.0,20.999 L40.999,20.999 C40.999,20.999 39.89,21.997 37.999,18.999 Z"></path><path fill="url(#PSgrad_1)" d="M37.999,18.999 L44.999,39.999 L85.999,39.999 L87.0,20.999 L40.999,20.999 C40.999,20.999 39.89,21.997 37.999,18.999 Z"></path></svg>