<svg xmlns="http://www.w3.org/2000/svg" xmlns:xlink="http://www.w3.org/1999/xlink" width="88px" height="91px"><defs><linearGradient id="PSgrad_0" x1="0%" x2="65.606%" y1="0%" y2="75.471%"><stop offset="0%" stop-color="rgb(255,102,179)" stop-opacity="0.72941"></stop><stop offset="54%" stop-color="rgb(255,102,179)" stop-opacity="0.88"></stop><stop offset="67%" stop-color="rgb(232,69,151)" stop-opacity="0.91"></stop><stop offset="100%" stop-color="rgb(232,69,151)" stop-opacity="1"></stop></linearGradient></defs><path fill-rule="evenodd" fill="rgb(255, 63, 160)" d="M87.157,81.425 C87.154,86.411 83.171,90.312 78.128,90.311 C73.108,90.309 69.139,86.381 69.134,81.385 C69.126,72.675 69.132,63.965 69.133,55.255 C69.134,46.546 69.133,37.836 69.134,29.126 C69.135,24.585 72.775,20.508 77.103,20.198 C82.154,19.835 86.342,22.993 87.96,27.747 C87.165,28.179 87.157,28.625 87.157,29.65 C87.160,46.519 87.165,63.972 87.157,81.425 ZM75.801,17.69 C73.914,17.80 72.485,15.813 72.396,14.29 C72.369,13.499 72.392,12.967 72.392,12.394 C71.833,12.489 71.631,12.875 71.359,13.146 C61.320,23.188 51.287,33.235 41.253,43.283 C40.553,43.985 39.837,44.632 38.773,44.739 C37.489,44.867 36.481,44.408 35.589,43.503 C32.996,40.873 30.353,38.291 27.778,35.644 C27.124,34.972 26.737,34.977 26.78,35.644 C21.912,39.865 17.703,44.43 13.512,48.239 C12.831,48.921 12.113,49.525 11.97,49.613 C9.506,49.752 8.229,49.60 7.594,47.713 C6.977,46.404 7.268,44.904 8.449,43.712 C11.478,40.654 14.528,37.617 17.569,34.573 C19.773,32.367 21.971,30.156 24.183,27.959 C26.2,26.154 27.866,26.167 29.693,27.989 C32.333,30.620 34.976,33.249 37.592,35.905 C38.98,36.419 38.434,36.511 38.991,35.951 C48.318,26.587 57.663,17.242 67.3,7.890 C67.119,7.773 67.218,7.639 67.502,7.304 C66.752,7.304 66.252,7.320 65.752,7.301 C63.946,7.234 62.631,5.824 62.632,3.972 C62.634,2.106 63.934,0.685 65.761,0.668 C69.148,0.635 72.535,0.640 75.922,0.664 C77.626,0.677 79.7,2.68 79.20,3.787 C79.45,7.178 79.46,10.568 79.22,13.958 C79.9,15.700 77.564,17.59 75.801,17.69 ZM18.861,68.39 C18.872,70.275 18.863,72.511 18.863,74.746 C18.863,77.50 18.874,79.354 18.860,81.657 C18.832,86.265 14.812,90.166 10.217,90.342 C5.822,90.510 1.766,87.359 0.952,82.986 C0.866,82.524 0.845,82.45 0.844,81.573 C0.835,77.68 0.821,72.563 0.841,68.57 C0.863,63.100 4.869,59.238 9.944,59.246 C14.840,59.253 18.838,63.190 18.861,68.39 ZM32.372,49.451 C37.568,49.285 41.662,53.735 41.630,58.142 C41.616,60.107 41.632,62.72 41.633,64.37 C41.634,66.3 41.633,67.968 41.633,69.933 C41.631,69.933 41.630,69.933 41.628,69.933 C41.628,73.829 41.606,77.725 41.634,81.621 C41.666,86.89 37.537,90.536 32.303,90.343 C27.655,90.172 23.612,86.265 23.606,81.604 C23.597,73.812 23.597,66.19 23.605,58.227 C23.610,53.511 27.656,49.602 32.372,49.451 ZM55.624,41.315 C60.392,41.467 64.390,45.372 64.393,50.187 C64.399,60.623 64.399,71.59 64.394,81.496 C64.392,86.296 60.379,90.200 55.599,90.341 C50.402,90.494 46.273,86.7 46.361,81.521 C46.412,78.879 46.369,76.235 46.369,73.592 C46.369,70.984 46.369,68.374 46.370,65.765 C46.370,60.547 46.407,55.329 46.359,50.111 C46.317,45.577 50.469,41.150 55.624,41.315 Z"></path><path fill="url(#PSgrad_0)" d="M87.157,81.425 C87.154,86.411 83.171,90.312 78.128,90.311 C73.108,90.309 69.139,86.381 69.134,81.385 C69.126,72.675 69.132,63.965 69.133,55.255 C69.134,46.546 69.133,37.836 69.134,29.126 C69.135,24.585 72.775,20.508 77.103,20.198 C82.154,19.835 86.342,22.993 87.96,27.747 C87.165,28.179 87.157,28.625 87.157,29.65 C87.160,46.519 87.165,63.972 87.157,81.425 ZM75.801,17.69 C73.914,17.80 72.485,15.813 72.396,14.29 C72.369,13.499 72.392,12.967 72.392,12.394 C71.833,12.489 71.631,12.875 71.359,13.146 C61.320,23.188 51.287,33.235 41.253,43.283 C40.553,43.985 39.837,44.632 38.773,44.739 C37.489,44.867 36.481,44.408 35.589,43.503 C32.996,40.873 30.353,38.291 27.778,35.644 C27.124,34.972 26.737,34.977 26.78,35.644 C21.912,39.865 17.703,44.43 13.512,48.239 C12.831,48.921 12.113,49.525 11.97,49.613 C9.506,49.752 8.229,49.60 7.594,47.713 C6.977,46.404 7.268,44.904 8.449,43.712 C11.478,40.654 14.528,37.617 17.569,34.573 C19.773,32.367 21.971,30.156 24.183,27.959 C26.2,26.154 27.866,26.167 29.693,27.989 C32.333,30.620 34.976,33.249 37.592,35.905 C38.98,36.419 38.434,36.511 38.991,35.951 C48.318,26.587 57.663,17.242 67.3,7.890 C67.119,7.773 67.218,7.639 67.502,7.304 C66.752,7.304 66.252,7.320 65.752,7.301 C63.946,7.234 62.631,5.824 62.632,3.972 C62.634,2.106 63.934,0.685 65.761,0.668 C69.148,0.635 72.535,0.640 75.922,0.664 C77.626,0.677 79.7,2.68 79.20,3.787 C79.45,7.178 79.46,10.568 79.22,13.958 C79.9,15.700 77.564,17.59 75.801,17.69 ZM18.861,68.39 C18.872,70.275 18.863,72.511 18.863,74.746 C18.863,77.50 18.874,79.354 18.860,81.657 C18.832,86.265 14.812,90.166 10.217,90.342 C5.822,90.510 1.766,87.359 0.952,82.986 C0.866,82.524 0.845,82.45 0.844,81.573 C0.835,77.68 0.821,72.563 0.841,68.57 C0.863,63.100 4.869,59.238 9.944,59.246 C14.840,59.253 18.838,63.190 18.861,68.39 ZM32.372,49.451 C37.568,49.285 41.662,53.735 41.630,58.142 C41.616,60.107 41.632,62.72 41.633,64.37 C41.634,66.3 41.633,67.968 41.633,69.933 C41.631,69.933 41.630,69.933 41.628,69.933 C41.628,73.829 41.606,77.725 41.634,81.621 C41.666,86.89 37.537,90.536 32.303,90.343 C27.655,90.172 23.612,86.265 23.606,81.604 C23.597,73.812 23.597,66.19 23.605,58.227 C23.610,53.511 27.656,49.602 32.372,49.451 ZM55.624,41.315 C60.392,41.467 64.390,45.372 64.393,50.187 C64.399,60.623 64.399,71.59 64.394,81.496 C64.392,86.296 60.379,90.200 55.599,90.341 C50.402,90.494 46.273,86.7 46.361,81.521 C46.412,78.879 46.369,76.235 46.369,73.592 C46.369,70.984 46.369,68.374 46.370,65.765 C46.370,60.547 46.407,55.329 46.359,50.111 C46.317,45.577 50.469,41.150 55.624,41.315 Z"></path></svg>