<svg xmlns="http://www.w3.org/2000/svg" xmlns:xlink="http://www.w3.org/1999/xlink" width="122px" height="108px"><defs><linearGradient id="PSgrad_0" x1="10.453%" x2="0%" y1="99.452%" y2="0%"><stop offset="0%" stop-color="rgb(255,98,107)" stop-opacity="0.72941"></stop><stop offset="80%" stop-color="rgb(255,98,107)" stop-opacity="0.95"></stop><stop offset="100%" stop-color="rgb(255,146,152)" stop-opacity="1"></stop></linearGradient><linearGradient id="PSgrad_1" x1="0%" x2="71.934%" y1="0%" y2="69.466%"><stop offset="0%" stop-color="rgb(255,98,107)" stop-opacity="0.72941"></stop><stop offset="11%" stop-color="rgb(255,98,107)" stop-opacity="0.76"></stop><stop offset="100%" stop-color="rgb(223,71,80)" stop-opacity="1"></stop></linearGradient></defs><path fill-rule="evenodd" fill="rgb(255, 98, 107)" d="M114.427,60.579 L100.965,60.579 C97.249,60.579 94.234,57.563 94.234,53.848 C94.234,50.132 97.249,47.116 100.965,47.116 L114.427,47.116 C118.143,47.116 121.158,50.132 121.158,53.848 C121.158,57.563 118.143,60.579 114.427,60.579 ZM93.897,34.469 C92.585,35.782 90.862,36.441 89.138,36.441 C87.415,36.441 85.692,35.782 84.380,34.469 C81.748,31.837 81.748,27.583 84.380,24.951 L93.897,15.433 C96.523,12.802 100.783,12.802 103.415,15.433 C106.47,18.65 106.47,22.319 103.415,24.951 L93.897,34.469 ZM77.406,83.410 L77.406,90.868 C77.406,100.150 69.854,107.696 60.579,107.696 C51.303,107.696 43.751,100.150 43.751,90.868 L43.751,83.410 C39.100,77.904 33.655,67.868 33.655,60.579 C33.655,45.703 45.481,34.45 60.579,34.45 C75.676,34.45 87.503,45.703 87.503,60.579 C87.503,67.868 82.57,77.904 77.406,83.410 ZM57.213,90.868 C57.213,92.719 58.721,94.234 60.579,94.234 C62.437,94.234 63.944,92.719 63.944,90.868 L63.944,87.503 L57.213,87.503 L57.213,90.868 ZM60.579,47.507 C53.27,47.507 47.117,53.248 47.117,60.579 C47.117,63.486 50.401,70.251 53.424,74.40 L67.741,74.40 C70.756,70.251 74.41,63.486 74.41,60.579 C74.41,53.248 68.131,47.507 60.579,47.507 ZM60.579,26.923 C56.863,26.923 53.848,23.908 53.848,20.192 L53.848,6.730 C53.848,3.15 56.863,0.0 60.579,0.0 C64.294,0.0 67.310,3.15 67.310,6.730 L67.310,20.192 C67.310,23.908 64.294,26.923 60.579,26.923 ZM32.19,36.441 C30.296,36.441 28.573,35.782 27.260,34.469 L17.742,24.951 C15.111,22.319 15.111,18.65 17.742,15.433 C20.374,12.802 24.628,12.802 27.260,15.433 L36.778,24.951 C39.410,27.583 39.410,31.837 36.778,34.469 C35.465,35.782 33.742,36.441 32.19,36.441 ZM26.924,53.848 C26.924,57.563 23.908,60.579 20.193,60.579 L6.730,60.579 C3.15,60.579 0.0,57.563 0.0,53.848 C0.0,50.132 3.15,47.116 6.730,47.116 L20.193,47.116 C23.908,47.116 26.924,50.132 26.924,53.848 Z"></path><path fill="url(#PSgrad_0)" d="M114.427,60.579 L100.965,60.579 C97.249,60.579 94.234,57.563 94.234,53.848 C94.234,50.132 97.249,47.116 100.965,47.116 L114.427,47.116 C118.143,47.116 121.158,50.132 121.158,53.848 C121.158,57.563 118.143,60.579 114.427,60.579 ZM93.897,34.469 C92.585,35.782 90.862,36.441 89.138,36.441 C87.415,36.441 85.692,35.782 84.380,34.469 C81.748,31.837 81.748,27.583 84.380,24.951 L93.897,15.433 C96.523,12.802 100.783,12.802 103.415,15.433 C106.47,18.65 106.47,22.319 103.415,24.951 L93.897,34.469 ZM77.406,83.410 L77.406,90.868 C77.406,100.150 69.854,107.696 60.579,107.696 C51.303,107.696 43.751,100.150 43.751,90.868 L43.751,83.410 C39.100,77.904 33.655,67.868 33.655,60.579 C33.655,45.703 45.481,34.45 60.579,34.45 C75.676,34.45 87.503,45.703 87.503,60.579 C87.503,67.868 82.57,77.904 77.406,83.410 ZM57.213,90.868 C57.213,92.719 58.721,94.234 60.579,94.234 C62.437,94.234 63.944,92.719 63.944,90.868 L63.944,87.503 L57.213,87.503 L57.213,90.868 ZM60.579,47.507 C53.27,47.507 47.117,53.248 47.117,60.579 C47.117,63.486 50.401,70.251 53.424,74.40 L67.741,74.40 C70.756,70.251 74.41,63.486 74.41,60.579 C74.41,53.248 68.131,47.507 60.579,47.507 ZM60.579,26.923 C56.863,26.923 53.848,23.908 53.848,20.192 L53.848,6.730 C53.848,3.15 56.863,0.0 60.579,0.0 C64.294,0.0 67.310,3.15 67.310,6.730 L67.310,20.192 C67.310,23.908 64.294,26.923 60.579,26.923 ZM32.19,36.441 C30.296,36.441 28.573,35.782 27.260,34.469 L17.742,24.951 C15.111,22.319 15.111,18.65 17.742,15.433 C20.374,12.802 24.628,12.802 27.260,15.433 L36.778,24.951 C39.410,27.583 39.410,31.837 36.778,34.469 C35.465,35.782 33.742,36.441 32.19,36.441 ZM26.924,53.848 C26.924,57.563 23.908,60.579 20.193,60.579 L6.730,60.579 C3.15,60.579 0.0,57.563 0.0,53.848 C0.0,50.132 3.15,47.116 6.730,47.116 L20.193,47.116 C23.908,47.116 26.924,50.132 26.924,53.848 Z"></path><path fill-rule="evenodd" fill="rgb(255, 98, 107)" d="M67.999,73.999 C67.999,73.999 64.36,82.655 63.999,86.999 L57.0,86.999 C57.0,86.999 56.703,80.682 52.999,73.999 L67.999,73.999 Z"></path><path fill="url(#PSgrad_1)" d="M67.999,73.999 C67.999,73.999 64.36,82.655 63.999,86.999 L57.0,86.999 C57.0,86.999 56.703,80.682 52.999,73.999 L67.999,73.999 Z"></path></svg>