<svg xmlns="http://www.w3.org/2000/svg" xmlns:xlink="http://www.w3.org/1999/xlink" width="185.177" height="92.547" viewBox="0 0 185.177 92.547"><defs><linearGradient id="linear-gradient" x1="-16.712" y1="6.314" x2="-16.712" y2="6.325" gradientUnits="objectBoundingBox"><stop offset="0" stop-color="#04eac4"></stop><stop offset="0.31" stop-color="#00cdb2"></stop><stop offset="0.32" stop-color="#04eac4"></stop></linearGradient><linearGradient id="linear-gradient-2" x1="-14.562" y1="6.328" x2="-14.562" y2="6.339" gradientUnits="objectBoundingBox"><stop offset="0.68" stop-color="#04eac4"></stop><stop offset="0.69" stop-color="#00cdb2"></stop><stop offset="1" stop-color="#04eac4"></stop></linearGradient></defs><g id="webdevelopment" transform="translate(-0.025 -0.161)"><path id="Path_1" data-name="Path 1" d="M138.2.3c4.1-.2,6.6,1.3,9,3.6,11.2,12,22.5,22.3,33.7,33.5,5.2,5.2,6.1,12.1.4,17.3-11.5,11.4-22.8,22.6-33.4,33.8-5.8,4.9-13.4,4.8-17.8.3-4.7-4.6-4.6-12.2.4-17.3,7.3-6.9,14.7-14.9,22.3-22.1,2.7-2.6,2.4-4.1-.1-6.5-7.6-7.2-15-14.7-22.3-22.2-6-6.2-4.6-15.8,2.9-19.3A8.611,8.611,0,0,1,138.2.3Z" fill="#fff" fill-rule="evenodd"></path><path id="Path_2" data-name="Path 2" d="M138.2.3c4.1-.2,6.6,1.3,9,3.6,11.2,12,22.5,22.3,33.7,33.5,5.2,5.2,6.1,12.1.4,17.3-11.5,11.4-22.8,22.6-33.4,33.8-5.8,4.9-13.4,4.8-17.8.3-4.7-4.6-4.6-12.2.4-17.3,7.3-6.9,14.7-14.9,22.3-22.1,2.7-2.6,2.4-4.1-.1-6.5-7.6-7.2-15-14.7-22.3-22.2-6-6.2-4.6-15.8,2.9-19.3A8.611,8.611,0,0,1,138.2.3Z" fill="url(#linear-gradient)"></path><path id="Path_3" data-name="Path 3" d="M81.7,92.7c-8.9-.3-14.4-8.1-11.8-16.2C77.3,53.8,85,31.2,92.6,8.6c2.3-6.7,8.7-9.9,15.1-7.8,6.2,2,9.6,8.2,7.5,14.9-3.6,11.6-7.6,23-11.5,34.5C100.8,61.9,96.5,72.4,92.8,83,90.8,89.3,86.8,92.9,81.7,92.7Z" fill="#04eac4" fill-rule="evenodd"></path><path id="Path_4" data-name="Path 4" d="M46.7,92.5a13.375,13.375,0,0,1-9-4.2C26.6,77.3,15.4,66.2,4.3,55.7c-5.8-6.1-5.6-12.9,0-18.4,11-11.1,22-22.1,33.2-33C42.8,1,50.4-1.1,55.1,3.7c4.6,4.6,4.4,12.1-.6,17.3C47.1,28.5,39.6,36.6,32,43.4c-2.3,2.2-2.2,3.5,0,6.3,7.6,6.7,15.1,14.2,22.6,21.8,5.8,5.9,5,14.7-1.4,18.8A12.247,12.247,0,0,1,46.7,92.5Z" fill="#fff" fill-rule="evenodd"></path><path id="Path_5" data-name="Path 5" d="M46.7,92.5a13.375,13.375,0,0,1-9-4.2C26.6,77.3,15.4,66.2,4.3,55.7c-5.8-6.1-5.6-12.9,0-18.4,11-11.1,22-22.1,33.2-33C42.8,1,50.4-1.1,55.1,3.7c4.6,4.6,4.4,12.1-.6,17.3C47.1,28.5,39.6,36.6,32,43.4c-2.3,2.2-2.2,3.5,0,6.3,7.6,6.7,15.1,14.2,22.6,21.8,5.8,5.9,5,14.7-1.4,18.8A12.247,12.247,0,0,1,46.7,92.5Z" fill="url(#linear-gradient-2)"></path></g></svg>